<mxfile host="app.diagrams.net" modified="2023-04-13T08:40:17.769Z" agent="Mozilla/5.0 (Windows NT 10.0; Win64; x64) AppleWebKit/537.36 (KHTML, like Gecko) Chrome/111.0.0.0 Safari/537.36 Edg/111.0.1661.62" version="21.1.7" etag="imrL2MNFmukWky7CjdLc" type="github">
  <diagram name="Page-1" id="Dns6A47ZdqjRNBWP2nWG">
    <mxGraphModel>
      <root>
        <mxCell id="0" />
        <mxCell id="1" parent="0" />
      </root>
    </mxGraphModel>
  </diagram>
</mxfile>
